<svg xmlns="http://www.w3.org/2000/svg" width="152" height="70" viewBox="0 0 152 70" fill="none"><path d="M126.687 0H101.587L90.6885 36.3166H104.339L91.4591 70L129.99 20.7367H114.467L126.687 0Z" fill="url(#paint0_linear)"></path><path d="M5.83474 27.5408C5.62312 27.1996 5.34096 26.9537 4.98825 26.8032C4.63555 26.6426 4.26773 26.5623 3.88479 26.5623C3.60263 26.5623 3.3255 26.5975 3.05342 26.6677C2.78133 26.738 2.53444 26.8433 2.31274 26.9838C2.10111 27.1243 1.9298 27.31 1.79879 27.5408C1.66779 27.7716 1.60229 28.0426 1.60229 28.3537C1.60229 28.5946 1.63756 28.8104 1.7081 29.001C1.78872 29.1817 1.91468 29.3473 2.086 29.4978C2.25731 29.6484 2.48909 29.7889 2.78133 29.9193C3.07357 30.0498 3.43131 30.1803 3.85456 30.3107C4.26773 30.4412 4.66578 30.5817 5.04872 30.7322C5.44173 30.8828 5.78436 31.0734 6.0766 31.3043C6.37892 31.5351 6.61573 31.8261 6.78705 32.1774C6.96844 32.5186 7.05913 32.9501 7.05913 33.472C7.05913 34.0039 6.95332 34.4656 6.7417 34.857C6.53008 35.2484 6.24791 35.5745 5.89521 35.8355C5.55258 36.0863 5.15453 36.272 4.70105 36.3924C4.24757 36.5229 3.77898 36.5881 3.29527 36.5881C2.98287 36.5881 2.67048 36.558 2.35808 36.4978C2.04569 36.4476 1.74337 36.3673 1.45113 36.257C1.16896 36.1365 0.901917 35.986 0.649984 35.8053C0.398053 35.6147 0.181391 35.3838 0 35.1129L1.08835 34.2247C1.32012 34.6161 1.6426 34.9122 2.05577 35.1129C2.46893 35.3136 2.90729 35.4139 3.37085 35.4139C3.64294 35.4139 3.91502 35.3738 4.18711 35.2935C4.46927 35.2132 4.72121 35.0978 4.94291 34.9473C5.16461 34.7867 5.346 34.591 5.48708 34.3602C5.62816 34.1294 5.6987 33.8634 5.6987 33.5623C5.6987 33.2311 5.64328 32.9652 5.53243 32.7645C5.42158 32.5537 5.25026 32.3731 5.01849 32.2225C4.78671 32.072 4.49447 31.9365 4.14176 31.8161C3.78906 31.6957 3.37589 31.5552 2.90226 31.3946C2.51932 31.2742 2.16662 31.1387 1.84414 30.9881C1.52167 30.8276 1.23951 30.6369 0.997651 30.4161C0.765873 30.1853 0.579444 29.9143 0.438362 29.6032C0.307357 29.282 0.241855 28.9007 0.241855 28.4591C0.241855 27.9473 0.342627 27.5007 0.544173 27.1193C0.745719 26.738 1.01781 26.4218 1.36043 26.1709C1.70306 25.91 2.09104 25.7143 2.52436 25.5838C2.95768 25.4534 3.41116 25.3881 3.88479 25.3881C4.48943 25.3881 5.03864 25.4835 5.53243 25.6742C6.03629 25.8548 6.48473 26.176 6.87774 26.6376L5.83474 27.5408Z" fill="#680089"></path><path d="M15.262 35.0376C14.8388 35.5795 14.3752 35.9609 13.8713 36.1817C13.3675 36.3924 12.783 36.4978 12.1179 36.4978C11.5636 36.4978 11.0648 36.4025 10.6214 36.2118C10.178 36.0111 9.80011 35.7451 9.48772 35.4139C9.1854 35.0828 8.94858 34.6914 8.77727 34.2398C8.61603 33.7881 8.53542 33.3064 8.53542 32.7946C8.53542 32.2527 8.62611 31.7559 8.8075 31.3043C8.98889 30.8426 9.24083 30.4512 9.5633 30.1301C9.88577 29.7989 10.2687 29.543 10.7121 29.3623C11.1555 29.1817 11.6392 29.0914 12.1632 29.0914C12.657 29.0914 13.1105 29.1767 13.5237 29.3473C13.9368 29.5079 14.2895 29.7487 14.5818 30.0699C14.8841 30.381 15.1159 30.7673 15.2771 31.229C15.4384 31.6806 15.519 32.1975 15.519 32.7795V33.1559H9.80515C9.82531 33.457 9.89585 33.748 10.0168 34.029C10.1478 34.3 10.3141 34.5408 10.5156 34.7516C10.7171 34.9523 10.954 35.1129 11.226 35.2333C11.4981 35.3537 11.7954 35.4139 12.1179 35.4139C12.6318 35.4139 13.0652 35.3236 13.4179 35.143C13.7706 34.9623 14.088 34.6964 14.3702 34.3451L15.262 35.0376ZM14.2492 32.1623C14.2291 31.5602 14.0326 31.0785 13.6597 30.7172C13.2869 30.3559 12.7729 30.1752 12.1179 30.1752C11.4629 30.1752 10.9338 30.3559 10.5307 30.7172C10.1276 31.0785 9.88577 31.5602 9.80515 32.1623H14.2492Z" fill="#680089"></path><path d="M17.4487 24.9365H18.6278V36.3172H17.4487V24.9365Z" fill="#680089"></path><path d="M21.0949 24.9365H22.2739V36.3172H21.0949V24.9365Z" fill="#680089"></path><path d="M31.5635 31.7258L27.5729 25.6591H29.1903L32.1983 30.4763L35.2971 25.6591H36.8238L32.8332 31.7258V36.3172H31.5635V31.7258Z" fill="#680089"></path><path d="M35.7116 32.7946C35.7116 32.2426 35.8073 31.7408 35.9988 31.2892C36.1903 30.8376 36.4523 30.4512 36.7848 30.1301C37.1174 29.7989 37.5154 29.543 37.979 29.3623C38.4425 29.1817 38.9464 29.0914 39.4906 29.0914C40.0347 29.0914 40.5386 29.1817 41.0022 29.3623C41.4657 29.543 41.8638 29.7989 42.1963 30.1301C42.5289 30.4512 42.7909 30.8376 42.9824 31.2892C43.1738 31.7408 43.2696 32.2426 43.2696 32.7946C43.2696 33.3466 43.1738 33.8484 42.9824 34.3C42.7909 34.7516 42.5289 35.143 42.1963 35.4742C41.8638 35.7953 41.4657 36.0462 41.0022 36.2268C40.5386 36.4075 40.0347 36.4978 39.4906 36.4978C38.9464 36.4978 38.4425 36.4075 37.979 36.2268C37.5154 36.0462 37.1174 35.7953 36.7848 35.4742C36.4523 35.143 36.1903 34.7516 35.9988 34.3C35.8073 33.8484 35.7116 33.3466 35.7116 32.7946ZM36.9813 32.7946C36.9813 33.1659 37.0368 33.5122 37.1476 33.8333C37.2685 34.1444 37.4398 34.4204 37.6615 34.6613C37.8833 34.8921 38.1453 35.0777 38.4476 35.2182C38.76 35.3487 39.1076 35.4139 39.4906 35.4139C39.8735 35.4139 40.2161 35.3487 40.5185 35.2182C40.8309 35.0777 41.0979 34.8921 41.3196 34.6613C41.5413 34.4204 41.7076 34.1444 41.8184 33.8333C41.9394 33.5122 41.9998 33.1659 41.9998 32.7946C41.9998 32.4233 41.9394 32.082 41.8184 31.7709C41.7076 31.4498 41.5413 31.1738 41.3196 30.943C41.0979 30.7021 40.8309 30.5165 40.5185 30.386C40.2161 30.2455 39.8735 30.1752 39.4906 30.1752C39.1076 30.1752 38.76 30.2455 38.4476 30.386C38.1453 30.5165 37.8833 30.7021 37.6615 30.943C37.4398 31.1738 37.2685 31.4498 37.1476 31.7709C37.0368 32.082 36.9813 32.4233 36.9813 32.7946Z" fill="#680089"></path><path d="M51.2621 34.6462C51.2621 34.9674 51.2722 35.2684 51.2923 35.5494C51.3125 35.8304 51.3226 36.0863 51.3226 36.3172H50.204C50.204 36.1265 50.1989 35.9358 50.1889 35.7451C50.1788 35.5544 50.1737 35.3587 50.1737 35.158H50.1435C50.0629 35.3286 49.947 35.4942 49.7958 35.6548C49.6548 35.8154 49.4835 35.9609 49.2819 36.0914C49.0804 36.2118 48.8536 36.3071 48.6017 36.3774C48.3498 36.4577 48.0777 36.4978 47.7854 36.4978C47.3219 36.4978 46.9188 36.4276 46.5762 36.2871C46.2436 36.1466 45.9665 35.9509 45.7448 35.7C45.5231 35.4491 45.3568 35.148 45.246 34.7967C45.1452 34.4354 45.0948 34.0441 45.0948 33.6225V29.272H46.2738V33.5021C46.2738 34.0942 46.4049 34.5609 46.6669 34.9021C46.9289 35.2433 47.337 35.4139 47.8912 35.4139C48.2742 35.4139 48.6017 35.3487 48.8738 35.2182C49.1559 35.0878 49.3827 34.9021 49.554 34.6613C49.7354 34.4204 49.8664 34.1344 49.947 33.8032C50.0377 33.472 50.0831 33.1057 50.0831 32.7043V29.272H51.2621V34.6462Z" fill="#680089"></path><path d="M53.4942 30.943C53.4942 30.6218 53.4841 30.3208 53.4639 30.0398C53.4438 29.7587 53.4337 29.5028 53.4337 29.272H54.5523C54.5523 29.4627 54.5573 29.6534 54.5674 29.8441C54.5775 30.0347 54.5825 30.2304 54.5825 30.4311H54.6128C54.6934 30.2605 54.8042 30.0949 54.9453 29.9344C55.0965 29.7738 55.2728 29.6333 55.4744 29.5129C55.6759 29.3824 55.9026 29.282 56.1546 29.2118C56.4065 29.1315 56.6786 29.0914 56.9708 29.0914C57.0515 29.0914 57.1321 29.0964 57.2127 29.1064C57.2933 29.1165 57.3739 29.1365 57.4545 29.1666L57.379 30.3559C57.1774 30.2957 56.9658 30.2656 56.7441 30.2656C56.0185 30.2656 55.4895 30.5014 55.1569 30.9731C54.8344 31.4347 54.6732 32.072 54.6732 32.8849V36.3172H53.4942V30.943Z" fill="#680089"></path><path d="M70.7245 27.857C70.4021 27.4254 70.004 27.1043 69.5304 26.8935C69.0568 26.6727 68.563 26.5623 68.049 26.5623C67.4545 26.5623 66.9053 26.6828 66.4014 26.9236C65.9076 27.1645 65.4793 27.4906 65.1165 27.9021C64.7538 28.3035 64.4716 28.7752 64.2701 29.3172C64.0685 29.8491 63.9677 30.4061 63.9677 30.9881C63.9677 31.6104 64.0685 32.1924 64.2701 32.7344C64.4716 33.2663 64.7487 33.7329 65.1014 34.1344C65.4642 34.5258 65.8925 34.8369 66.3863 35.0677C66.8901 35.2985 67.4444 35.4139 68.049 35.4139C68.7041 35.4139 69.2885 35.2885 69.8025 35.0376C70.3164 34.7767 70.7649 34.4053 71.1478 33.9236L72.1001 34.7215C71.6164 35.3638 71.0319 35.8355 70.3466 36.1365C69.6715 36.4376 68.9056 36.5881 68.049 36.5881C67.2832 36.5881 66.5677 36.4476 65.9026 36.1666C65.2375 35.8856 64.658 35.4992 64.1642 35.0075C63.6805 34.5057 63.2976 33.9136 63.0154 33.2311C62.7433 32.5487 62.6073 31.801 62.6073 30.9881C62.6073 30.2053 62.7383 29.4727 63.0003 28.7903C63.2724 28.1079 63.6503 27.5157 64.134 27.0139C64.6177 26.5122 65.1921 26.1157 65.8572 25.8247C66.5223 25.5337 67.2529 25.3881 68.049 25.3881C68.7746 25.3881 69.4699 25.5186 70.135 25.7795C70.8102 26.0405 71.3745 26.467 71.828 27.0591L70.7245 27.857Z" fill="#680089"></path><path d="M73.5679 30.1752C73.9307 29.8039 74.3589 29.5329 74.8527 29.3623C75.3566 29.1817 75.8655 29.0914 76.3794 29.0914C77.4275 29.0914 78.1833 29.3372 78.6468 29.829C79.1104 30.3208 79.3422 31.0684 79.3422 32.072V35.0978C79.3422 35.2985 79.3522 35.5093 79.3724 35.7301C79.3925 35.9408 79.4177 36.1365 79.448 36.3172H78.3143C78.274 36.1566 78.2488 35.981 78.2387 35.7903C78.2387 35.5896 78.2387 35.4139 78.2387 35.2634H78.2085C77.9767 35.6247 77.6643 35.9208 77.2713 36.1516C76.8883 36.3824 76.4248 36.4978 75.8806 36.4978C75.5178 36.4978 75.1752 36.4527 74.8527 36.3623C74.5403 36.272 74.2632 36.1415 74.0214 35.9709C73.7896 35.7903 73.6031 35.5695 73.4621 35.3086C73.321 35.0476 73.2504 34.7466 73.2504 34.4053C73.2504 33.8233 73.4016 33.3666 73.7039 33.0354C74.0062 32.7043 74.3791 32.4584 74.8225 32.2978C75.276 32.1372 75.7597 32.0369 76.2736 31.9967C76.7976 31.9566 77.2763 31.9365 77.7096 31.9365H78.1631V31.7258C78.1631 31.2139 78.0069 30.8276 77.6945 30.5666C77.3922 30.3057 76.9639 30.1752 76.4097 30.1752C76.0267 30.1752 75.6488 30.2405 75.276 30.3709C74.9132 30.4914 74.5907 30.682 74.3086 30.943L73.5679 30.1752ZM76.9841 32.9301C76.2283 32.9301 75.6287 33.0354 75.1853 33.2462C74.7419 33.457 74.5202 33.8032 74.5202 34.2849C74.5202 34.7265 74.6663 35.0426 74.9585 35.2333C75.2609 35.4139 75.6337 35.5043 76.0771 35.5043C76.4197 35.5043 76.717 35.4491 76.969 35.3387C77.231 35.2182 77.4476 35.0627 77.6189 34.872C77.7903 34.6813 77.9213 34.4605 78.012 34.2096C78.1027 33.9487 78.153 33.6727 78.1631 33.3817V32.9301H76.9841Z" fill="#680089"></path><path d="M81.497 30.943C81.497 30.6218 81.4869 30.3208 81.4668 30.0398C81.4466 29.7587 81.4365 29.5028 81.4365 29.272H82.5551C82.5551 29.4627 82.5602 29.6534 82.5702 29.8441C82.5803 30.0347 82.5854 30.2304 82.5854 30.4311H82.6156C82.6962 30.2605 82.8071 30.0949 82.9481 29.9344C83.0993 29.7738 83.2756 29.6333 83.4772 29.5129C83.6787 29.3824 83.9055 29.282 84.1574 29.2118C84.4093 29.1315 84.6814 29.0914 84.9737 29.0914C85.0543 29.0914 85.1349 29.0964 85.2155 29.1064C85.2961 29.1165 85.3768 29.1365 85.4574 29.1666L85.3818 30.3559C85.1803 30.2957 84.9686 30.2656 84.7469 30.2656C84.0214 30.2656 83.4923 30.5014 83.1598 30.9731C82.8373 31.4347 82.676 32.072 82.676 32.8849V36.3172H81.497V30.943Z" fill="#680089"></path><path d="M0.652317 47.3538H3.99671V58.1451H0.652317V47.3538ZM0.384766 43.9565C0.384766 43.4236 0.570565 42.9722 0.942165 42.6021C1.32863 42.2172 1.78941 42.0248 2.32452 42.0248C2.85962 42.0248 3.31297 42.2172 3.68457 42.6021C4.07103 42.9722 4.26427 43.4236 4.26427 43.9565C4.26427 44.4894 4.07103 44.9483 3.68457 45.3332C3.31297 45.7033 2.85962 45.8883 2.32452 45.8883C1.78941 45.8883 1.32863 45.7033 0.942165 45.3332C0.570565 44.9483 0.384766 44.4894 0.384766 43.9565Z" fill="#680089"></path><path d="M5.73057 47.3538H8.9412V48.8193H8.98579C9.08984 48.612 9.23847 48.4048 9.43171 48.1976C9.62494 47.9903 9.85533 47.8053 10.1229 47.6425C10.3904 47.4796 10.6951 47.3464 11.037 47.2428C11.3789 47.1392 11.7505 47.0874 12.1518 47.0874C12.9991 47.0874 13.6828 47.2206 14.203 47.487C14.7233 47.7387 15.1246 48.0939 15.407 48.5528C15.7043 49.0117 15.905 49.552 16.009 50.1737C16.1131 50.7955 16.1651 51.469 16.1651 52.1943V58.1451H12.8207V52.8605C12.8207 52.5496 12.8058 52.2313 12.7761 51.9057C12.7612 51.5652 12.6944 51.2544 12.5754 50.9731C12.4714 50.6918 12.3005 50.4624 12.0626 50.2848C11.8397 50.1071 11.5127 50.0183 11.0816 50.0183C10.6506 50.0183 10.3012 50.0997 10.0337 50.2626C9.76615 50.4106 9.55805 50.6178 9.40941 50.8843C9.27563 51.1359 9.18645 51.4246 9.14186 51.7503C9.09727 52.0759 9.07497 52.4164 9.07497 52.7717V58.1451H5.73057V47.3538Z" fill="#680089"></path><path d="M30.5932 56.7906H30.5486C30.177 57.3679 29.6791 57.7824 29.0548 58.0341C28.4454 58.2857 27.7988 58.4115 27.115 58.4115C26.6097 58.4115 26.1191 58.3375 25.6435 58.1895C25.1827 58.0563 24.774 57.849 24.4172 57.5678C24.0605 57.2865 23.7781 56.9387 23.57 56.5242C23.3619 56.1097 23.2578 55.6286 23.2578 55.0809C23.2578 54.4592 23.3693 53.9337 23.5923 53.5044C23.8301 53.0751 24.1422 52.7198 24.5287 52.4386C24.93 52.1573 25.3834 51.9427 25.8888 51.7947C26.3941 51.6318 26.9144 51.5134 27.4495 51.4394C27.9994 51.3654 28.542 51.321 29.0771 51.3062C29.627 51.2914 30.1324 51.284 30.5932 51.284C30.5932 50.6918 30.3777 50.2256 29.9466 49.8851C29.5304 49.5298 29.0325 49.3522 28.4528 49.3522C27.9028 49.3522 27.3974 49.4706 26.9367 49.7075C26.4907 49.9295 26.0894 50.2404 25.7327 50.64L23.949 48.8193C24.5733 48.242 25.3016 47.8127 26.134 47.5314C26.9664 47.2354 27.8285 47.0874 28.7203 47.0874C29.7014 47.0874 30.504 47.2132 31.1283 47.4648C31.7675 47.7017 32.2728 48.0569 32.6444 48.5306C33.0309 49.0043 33.2984 49.589 33.4471 50.2848C33.5957 50.9657 33.67 51.7577 33.67 52.6606V58.1451H30.5932V56.7906ZM29.7682 53.4156C29.5156 53.4156 29.196 53.4304 28.8095 53.46C28.4379 53.4748 28.0738 53.534 27.717 53.6376C27.3751 53.7412 27.0779 53.8967 26.8252 54.1039C26.5874 54.3112 26.4684 54.5998 26.4684 54.9699C26.4684 55.3696 26.6394 55.6656 26.9813 55.858C27.3231 56.0505 27.6799 56.1467 28.0515 56.1467C28.3785 56.1467 28.6906 56.1023 28.9879 56.0135C29.3 55.9247 29.575 55.7988 29.8128 55.636C30.0507 55.4732 30.2365 55.2659 30.3702 55.0143C30.5189 54.7626 30.5932 54.4666 30.5932 54.1261V53.4156H29.7682Z" fill="#680089"></path><path d="M41.5853 42.4244H52.1759V45.6219H45.0635V48.8193H51.6408V52.0167H45.0635V58.1451H41.5853V42.4244Z" fill="#680089"></path><path d="M53.6201 41.3586H56.9645V58.1451H53.6201V41.3586Z" fill="#680089"></path><path d="M65.4986 56.7906H65.454C65.0824 57.3679 64.5845 57.7824 63.9602 58.0341C63.3507 58.2857 62.7042 58.4115 62.0204 58.4115C61.515 58.4115 61.0245 58.3375 60.5489 58.1895C60.0881 58.0563 59.6794 57.849 59.3226 57.5678C58.9659 57.2865 58.6835 56.9387 58.4754 56.5242C58.2673 56.1097 58.1632 55.6286 58.1632 55.0809C58.1632 54.4592 58.2747 53.9337 58.4977 53.5044C58.7355 53.0751 59.0476 52.7198 59.4341 52.4386C59.8354 52.1573 60.2888 51.9427 60.7941 51.7947C61.2995 51.6318 61.8198 51.5134 62.3549 51.4394C62.9048 51.3654 63.4474 51.321 63.9825 51.3062C64.5324 51.2914 65.0378 51.284 65.4986 51.284C65.4986 50.6918 65.2831 50.2256 64.852 49.8851C64.4358 49.5298 63.9379 49.3522 63.3582 49.3522C62.8082 49.3522 62.3028 49.4706 61.8421 49.7075C61.3961 49.9295 60.9948 50.2404 60.6381 50.64L58.8544 48.8193C59.4787 48.242 60.207 47.8127 61.0394 47.5314C61.8718 47.2354 62.7339 47.0874 63.6257 47.0874C64.6068 47.0874 65.4094 47.2132 66.0337 47.4648C66.6729 47.7017 67.1782 48.0569 67.5498 48.5306C67.9363 49.0043 68.2038 49.589 68.3525 50.2848C68.5011 50.9657 68.5754 51.7577 68.5754 52.6606V58.1451H65.4986V56.7906ZM64.6736 53.4156C64.421 53.4156 64.1014 53.4304 63.7149 53.46C63.3433 53.4748 62.9792 53.534 62.6224 53.6376C62.2805 53.7412 61.9833 53.8967 61.7306 54.1039C61.4928 54.3112 61.3738 54.5998 61.3738 54.9699C61.3738 55.3696 61.5448 55.6656 61.8867 55.858C62.2285 56.0505 62.5853 56.1467 62.9569 56.1467C63.2839 56.1467 63.596 56.1023 63.8933 56.0135C64.2054 55.9247 64.4804 55.7988 64.7182 55.636C64.9561 55.4732 65.1419 55.2659 65.2756 55.0143C65.4243 54.7626 65.4986 54.4666 65.4986 54.1261V53.4156H64.6736Z" fill="#680089"></path><path d="M76.1362 50.529C75.6457 49.9221 74.9991 49.6186 74.1965 49.6186C73.914 49.6186 73.6391 49.6853 73.3715 49.8185C73.104 49.9517 72.9702 50.1812 72.9702 50.5068C72.9702 50.7733 73.104 50.9731 73.3715 51.1063C73.6539 51.2248 74.0032 51.3358 74.4194 51.4394C74.8505 51.5282 75.3038 51.6318 75.7795 51.7503C76.27 51.8539 76.7233 52.0241 77.1395 52.261C77.5706 52.4978 77.9199 52.8235 78.1874 53.2379C78.4699 53.6376 78.6111 54.1779 78.6111 54.8589C78.6111 55.5546 78.455 56.1319 78.1429 56.5908C77.8456 57.0349 77.4591 57.3975 76.9835 57.6788C76.5078 57.9453 75.9727 58.1303 75.3782 58.2339C74.7836 58.3523 74.1965 58.4115 73.6168 58.4115C72.8587 58.4115 72.0932 58.3079 71.3203 58.1007C70.5474 57.8786 69.8933 57.4938 69.3582 56.9461L71.3872 54.7034C71.6993 55.0883 72.0412 55.3844 72.4128 55.5916C72.7993 55.784 73.2452 55.8803 73.7505 55.8803C74.137 55.8803 74.4863 55.8284 74.7985 55.7248C75.1106 55.6064 75.2667 55.3992 75.2667 55.1031C75.2667 54.8218 75.1255 54.6146 74.8431 54.4814C74.5755 54.3334 74.2262 54.2149 73.7951 54.1261C73.3789 54.0225 72.9256 53.9189 72.4351 53.8153C71.9594 53.6968 71.5061 53.5266 71.075 53.3046C70.6588 53.0825 70.3095 52.7717 70.0271 52.372C69.7596 51.9575 69.6258 51.4098 69.6258 50.7289C69.6258 50.0923 69.7521 49.5446 70.0048 49.0857C70.2724 48.6268 70.6143 48.2494 71.0304 47.9533C71.4615 47.6573 71.952 47.4426 72.502 47.3094C73.0519 47.1614 73.6093 47.0874 74.1742 47.0874C74.8876 47.0874 75.6085 47.191 76.3369 47.3982C77.0652 47.6055 77.6821 47.9755 78.1874 48.5084L76.1362 50.529Z" fill="#680089"></path><path d="M83.0009 41.3586V48.8193H83.0455C83.1199 48.612 83.2462 48.4048 83.4246 48.1976C83.6029 47.9903 83.8185 47.8053 84.0712 47.6425C84.3238 47.4796 84.6211 47.3464 84.963 47.2428C85.3049 47.1392 85.6765 47.0874 86.0778 47.0874C86.925 47.0874 87.6088 47.2206 88.129 47.487C88.6493 47.7387 89.0506 48.0939 89.333 48.5528C89.6303 49.0117 89.8309 49.552 89.935 50.1737C90.039 50.7955 90.0911 51.469 90.0911 52.1943V58.1451H86.7467V52.8605C86.7467 52.5496 86.7318 52.2313 86.7021 51.9057C86.6872 51.5652 86.6203 51.2544 86.5014 50.9731C86.3974 50.6918 86.2264 50.4624 85.9886 50.2848C85.7656 50.1071 85.4386 50.0183 85.0076 50.0183C84.5765 50.0183 84.2272 50.0997 83.9597 50.2626C83.6921 50.4106 83.484 50.6178 83.3354 50.8843C83.2016 51.1359 83.1124 51.4246 83.0678 51.7503C83.0232 52.0759 83.0009 52.4164 83.0009 52.7717V58.1451H79.6565V41.3586H83.0009Z" fill="#680089"></path><path d="M110.001 56.3841C110.293 56.3841 110.539 56.4909 110.738 56.7043C110.948 56.9058 111.053 57.1548 111.053 57.4512C111.053 57.7476 110.942 58.0025 110.72 58.216C110.51 58.4175 110.27 58.5183 110.001 58.5183C109.732 58.5183 109.486 58.4175 109.264 58.216C109.053 58.0025 108.948 57.7476 108.948 57.4512C108.948 57.1548 109.048 56.9058 109.246 56.7043C109.457 56.4909 109.708 56.3841 110.001 56.3841Z" fill="#680089"></path><path d="M119.585 52.1692C119.292 51.8135 118.976 51.5586 118.637 51.4045C118.298 51.2385 117.924 51.1555 117.515 51.1555C117.058 51.1555 116.655 51.2385 116.304 51.4045C115.953 51.5586 115.661 51.7779 115.427 52.0625C115.205 52.3471 115.035 52.679 114.918 53.0584C114.801 53.426 114.743 53.8232 114.743 54.25C114.743 54.6768 114.807 55.0799 114.936 55.4594C115.076 55.8269 115.263 56.1529 115.497 56.4375C115.743 56.7221 116.035 56.9473 116.374 57.1133C116.713 57.2674 117.094 57.3445 117.515 57.3445C118.415 57.3445 119.111 57.0007 119.602 56.313L120.62 57.2912C120.222 57.7536 119.754 58.0915 119.216 58.3049C118.678 58.5183 118.111 58.625 117.515 58.625C116.883 58.625 116.304 58.5183 115.778 58.3049C115.252 58.0915 114.801 57.7891 114.427 57.3979C114.065 57.0066 113.778 56.5442 113.568 56.0107C113.369 55.4771 113.269 54.8902 113.269 54.25C113.269 53.6216 113.369 53.0407 113.568 52.5071C113.778 51.9736 114.07 51.5112 114.445 51.1199C114.819 50.7287 115.263 50.4263 115.778 50.2129C116.304 49.9876 116.883 49.875 117.515 49.875C118.123 49.875 118.696 49.9817 119.234 50.1951C119.783 50.4085 120.263 50.7405 120.672 51.1911L119.585 52.1692Z" fill="#680089"></path><path d="M121.732 54.25C121.732 53.5979 121.843 53.0051 122.065 52.4715C122.288 51.938 122.592 51.4815 122.978 51.1021C123.364 50.7109 123.825 50.4085 124.363 50.1951C124.901 49.9817 125.486 49.875 126.118 49.875C126.749 49.875 127.334 49.9817 127.872 50.1951C128.41 50.4085 128.872 50.7109 129.258 51.1021C129.644 51.4815 129.948 51.938 130.17 52.4715C130.392 53.0051 130.503 53.5979 130.503 54.25C130.503 54.9021 130.392 55.4949 130.17 56.0285C129.948 56.562 129.644 57.0244 129.258 57.4157C128.872 57.7951 128.41 58.0915 127.872 58.3049C127.334 58.5183 126.749 58.625 126.118 58.625C125.486 58.625 124.901 58.5183 124.363 58.3049C123.825 58.0915 123.364 57.7951 122.978 57.4157C122.592 57.0244 122.288 56.562 122.065 56.0285C121.843 55.4949 121.732 54.9021 121.732 54.25ZM123.206 54.25C123.206 54.6887 123.27 55.0977 123.399 55.4771C123.539 55.8447 123.738 56.1707 123.995 56.4553C124.252 56.728 124.556 56.9473 124.907 57.1133C125.27 57.2674 125.673 57.3445 126.118 57.3445C126.562 57.3445 126.96 57.2674 127.311 57.1133C127.673 56.9473 127.983 56.728 128.24 56.4553C128.498 56.1707 128.691 55.8447 128.819 55.4771C128.96 55.0977 129.03 54.6887 129.03 54.25C129.03 53.8113 128.96 53.4082 128.819 53.0407C128.691 52.6612 128.498 52.3352 128.24 52.0625C127.983 51.7779 127.673 51.5586 127.311 51.4045C126.96 51.2385 126.562 51.1555 126.118 51.1555C125.673 51.1555 125.27 51.2385 124.907 51.4045C124.556 51.5586 124.252 51.7779 123.995 52.0625C123.738 52.3352 123.539 52.6612 123.399 53.0407C123.27 53.4082 123.206 53.8113 123.206 54.25Z" fill="#680089"></path><path d="M132.622 52.0625C132.622 51.6831 132.61 51.3274 132.586 50.9954C132.563 50.6634 132.551 50.3611 132.551 50.0884H133.849C133.849 50.3137 133.855 50.539 133.867 50.7642C133.879 50.9895 133.885 51.2207 133.885 51.4578H133.92C134.013 51.2563 134.142 51.0606 134.306 50.8709C134.481 50.6812 134.686 50.5152 134.92 50.373C135.153 50.2188 135.417 50.1003 135.709 50.0173C136.001 49.9224 136.317 49.875 136.656 49.875C137.101 49.875 137.469 49.9343 137.761 50.0528C138.066 50.1596 138.317 50.2959 138.516 50.4619C138.715 50.616 138.867 50.7879 138.972 50.9776C139.089 51.1555 139.182 51.3155 139.253 51.4578C139.557 50.9599 139.907 50.5745 140.305 50.3018C140.703 50.0173 141.217 49.875 141.849 49.875C142.434 49.875 142.925 49.958 143.322 50.124C143.72 50.2781 144.042 50.5093 144.287 50.8176C144.533 51.114 144.708 51.4815 144.813 51.9202C144.919 52.3471 144.971 52.8272 144.971 53.3608V58.4116H143.603V53.4319C143.603 53.1474 143.574 52.8687 143.515 52.596C143.457 52.3233 143.352 52.0803 143.2 51.8669C143.048 51.6535 142.843 51.4815 142.586 51.3511C142.328 51.2207 142.001 51.1555 141.603 51.1555C141.311 51.1555 141.036 51.2148 140.779 51.3333C140.521 51.4519 140.293 51.6179 140.095 51.8313C139.907 52.0447 139.755 52.3056 139.638 52.6138C139.533 52.9102 139.481 53.2422 139.481 53.6098V58.4116H138.112V53.6987C138.112 52.7739 137.989 52.1218 137.744 51.7424C137.498 51.3511 137.095 51.1555 136.533 51.1555C136.089 51.1555 135.703 51.2326 135.376 51.3867C135.06 51.5408 134.797 51.7602 134.586 52.0447C134.387 52.3293 134.235 52.6672 134.13 53.0584C134.037 53.4497 133.99 53.8825 133.99 54.3567V58.4116H132.622V52.0625Z" fill="#680089"></path><defs><linearGradient id="paint0_linear" x1="90.6885" y1="35" x2="129.99" y2="35" gradientUnits="userSpaceOnUse"><stop stop-color="#FFE500"></stop><stop offset="1" stop-color="#FD6802"></stop></linearGradient></defs></svg>